<?xml version="1.0" encoding="UTF-8" standalone="no"?>
<!-- Generator: Adobe Illustrator 18.0.0, SVG Export Plug-In . SVG Version: 6.00 Build 0)  -->

<svg
   xmlns:dc="http://purl.org/dc/elements/1.1/"
   xmlns:cc="http://creativecommons.org/ns#"
   xmlns:rdf="http://www.w3.org/1999/02/22-rdf-syntax-ns#"
   xmlns:svg="http://www.w3.org/2000/svg"
   xmlns="http://www.w3.org/2000/svg"
   xmlns:sodipodi="http://sodipodi.sourceforge.net/DTD/sodipodi-0.dtd"
   xmlns:inkscape="http://www.inkscape.org/namespaces/inkscape"
   version="1.1"
   id="Capa_1"
   x="0px"
   y="0px"
   viewBox="0 0 58 58"
   style="enable-background:new 0 0 58 58;"
   xml:space="preserve"
   sodipodi:docname="OUTROVALOR.svg"
   inkscape:export-filename="C:\Users\Michele\Downloads\egg.png"
   inkscape:export-xdpi="662.06897"
   inkscape:export-ydpi="662.06897"
   inkscape:version="0.92.4 (5da689c313, 2019-01-14)"><metadata
   id="metadata1066"><rdf:RDF><cc:Work
       rdf:about=""><dc:format>image/svg+xml</dc:format><dc:type
         rdf:resource="http://purl.org/dc/dcmitype/StillImage" /><dc:title></dc:title></cc:Work></rdf:RDF></metadata><defs
   id="defs1064" /><sodipodi:namedview
   pagecolor="#ffffff"
   bordercolor="#666666"
   borderopacity="1"
   objecttolerance="10"
   gridtolerance="10"
   guidetolerance="10"
   inkscape:pageopacity="0"
   inkscape:pageshadow="2"
   inkscape:window-width="1366"
   inkscape:window-height="705"
   id="namedview1062"
   showgrid="false"
   inkscape:zoom="8.137931"
   inkscape:cx="41.99217"
   inkscape:cy="28.102022"
   inkscape:window-x="-8"
   inkscape:window-y="-8"
   inkscape:window-maximized="1"
   inkscape:current-layer="Capa_1" />

<g
   id="g1031">
</g>
<g
   id="g1033">
</g>
<g
   id="g1035">
</g>
<g
   id="g1037">
</g>
<g
   id="g1039">
</g>
<g
   id="g1041">
</g>
<g
   id="g1043">
</g>
<g
   id="g1045">
</g>
<g
   id="g1047">
</g>
<g
   id="g1049">
</g>
<g
   id="g1051">
</g>
<g
   id="g1053">
</g>
<g
   id="g1055">
</g>
<g
   id="g1057">
</g>
<g
   id="g1059">
</g>
<rect
   style="opacity:1;fill:#3dabef;fill-opacity:1;fill-rule:nonzero;stroke:#f2f2f2;stroke-width:0;stroke-linecap:round;stroke-linejoin:bevel;stroke-miterlimit:0;stroke-dasharray:none;stroke-dashoffset:0;stroke-opacity:1;paint-order:stroke fill markers"
   id="rect1068"
   width="57.385593"
   height="50.75"
   x="0.36864406"
   y="0.24576263" /><rect
   style="opacity:1;fill:#ffffff;fill-opacity:1;fill-rule:nonzero;stroke:#f2f2f2;stroke-width:0;stroke-linecap:round;stroke-linejoin:bevel;stroke-miterlimit:0;stroke-dasharray:none;stroke-dashoffset:0;stroke-opacity:1;paint-order:stroke fill markers"
   id="rect1070"
   width="56.771187"
   height="34.038136"
   x="0.61440682"
   y="0.77118629" /><text
   xml:space="preserve"
   style="font-style:normal;font-variant:normal;font-weight:normal;font-stretch:normal;font-size:2.66666675px;line-height:1.25;font-family:'Arial Rounded MT Bold';-inkscape-font-specification:'Arial Rounded MT Bold, Normal';font-variant-ligatures:normal;font-variant-caps:normal;font-variant-numeric:normal;font-feature-settings:normal;text-align:center;letter-spacing:0px;word-spacing:0px;writing-mode:lr-tb;text-anchor:middle;fill:#000000;fill-opacity:1;stroke:none"
   x="29.122881"
   y="24.944914"
   id="text1194"><tspan
     sodipodi:role="line"
     id="tspan1192"
     x="29.122881"
     y="24.944914">Sua doação ajuda a levar</tspan><tspan
     sodipodi:role="line"
     x="29.122881"
     y="28.278248"
     id="tspan1196">comida para pessoas necessitadas.</tspan></text>
<text
   xml:space="preserve"
   style="font-style:normal;font-variant:normal;font-weight:normal;font-stretch:normal;font-size:2.66666675px;line-height:1.25;font-family:'Arial Rounded MT Bold';-inkscape-font-specification:'Arial Rounded MT Bold, Normal';font-variant-ligatures:normal;font-variant-caps:normal;font-variant-numeric:normal;font-feature-settings:normal;text-align:center;letter-spacing:0px;word-spacing:0px;writing-mode:lr-tb;text-anchor:middle;fill:#000000;fill-opacity:1;stroke:none"
   x="28.911016"
   y="42.885593"
   id="text1200"><tspan
     sodipodi:role="line"
     id="tspan1198"
     x="28.911016"
     y="42.885593"
     style="font-style:normal;font-variant:normal;font-weight:normal;font-stretch:normal;font-family:Arial;-inkscape-font-specification:Arial">QUERO DOAR</tspan></text>
<text
   xml:space="preserve"
   style="font-style:normal;font-variant:normal;font-weight:normal;font-stretch:normal;font-size:2px;line-height:1;font-family:'Arial Rounded MT Bold';-inkscape-font-specification:'Arial Rounded MT Bold, Normal';font-variant-ligatures:normal;font-variant-caps:normal;font-variant-numeric:normal;font-feature-settings:normal;text-align:center;letter-spacing:0px;word-spacing:0px;writing-mode:lr-tb;text-anchor:middle;fill:#008000;fill-opacity:1;stroke:none"
   x="28.508476"
   y="46.449154"
   id="text1204"><tspan
     sodipodi:role="line"
     id="tspan1202"
     x="28.508476"
     y="46.449154"
     style="font-style:normal;font-variant:normal;font-weight:normal;font-stretch:normal;font-family:Arial;-inkscape-font-specification:Arial;fill:#000080;fill-opacity:1">OUTRO</tspan><tspan
     sodipodi:role="line"
     x="28.508476"
     y="49.116898"
     style="font-style:normal;font-variant:normal;font-weight:normal;font-stretch:normal;font-family:Arial;-inkscape-font-specification:Arial;fill:#000080;fill-opacity:1"
     id="tspan2305">VALOR</tspan></text>
<rect
   style="opacity:1;fill:#000080;fill-opacity:1;fill-rule:nonzero;stroke:#f2f2f2;stroke-width:0;stroke-linecap:round;stroke-linejoin:bevel;stroke-miterlimit:0;stroke-dasharray:none;stroke-dashoffset:0;stroke-opacity:1;paint-order:stroke fill markers"
   id="rect2019"
   width="15.360169"
   height="0.12288135"
   x="20.720337"
   y="49.233051" /><g
   transform="matrix(0.23512402,0,0,0.23512402,23.834447,4.0545638)"
   id="g686"><path
     inkscape:connector-curvature="0"
     style="fill:#d2d5d7"
     d="m 27.026,26.052 c -8.008,0 -14.5,-2.686 -14.5,-6 v 29 c 0,3.314 6.492,6 14.5,6 8.008,0 14.5,-2.686 14.5,-6 v -29 c 0,3.314 -6.492,6 -14.5,6 z"
     id="path668" /><path
     inkscape:connector-curvature="0"
     style="fill:#3dabef"
     d="m 27.026,31 c -8.008,0 -14.5,-2.686 -14.5,-6 v 19.052 c 0,3.314 6.492,6.948 14.5,6.948 8.008,0 14.5,-3.634 14.5,-6.948 V 25 c 0,3.314 -6.492,6 -14.5,6 z"
     id="path670" /><path
     inkscape:connector-curvature="0"
     style="fill:#6a3311"
     d="m 31.076,14.294 c -1.287,-0.155 -2.643,-0.242 -4.05,-0.242 -8.008,0 -14.5,2.686 -14.5,6 0,3.314 6.492,6 14.5,6 7.197,0 13.153,-2.172 14.289,-5.017 -1.947,-0.113 -5.979,-2.747 -10.239,-6.741 z"
     id="path672" /><path
     inkscape:connector-curvature="0"
     style="fill:#d2d5d7"
     d="M 34.371,8.155 C 28.708,2.492 23.056,-1.036 21.747,0.273 21.05,0.97 21.733,2.903 23.369,5.406 L 27.526,6 25.65,8.502 c 1.147,1.412 2.486,2.902 3.979,4.396 5.663,5.663 11.315,9.191 12.624,7.882 1.31,-1.311 -2.219,-6.963 -7.882,-12.625 z"
     id="path674" /><path
     inkscape:connector-curvature="0"
     style="fill:#a46f3e"
     d="m 15.527,22 c -0.348,0 -0.685,-0.181 -0.869,-0.504 -0.274,-0.479 -0.107,-1.09 0.372,-1.364 l 7,-4 c 0.479,-0.276 1.09,-0.107 1.364,0.372 0.274,0.479 0.107,1.09 -0.372,1.364 l -7,4 C 15.866,21.958 15.695,22 15.527,22 Z"
     id="path676" /><path
     inkscape:connector-curvature="0"
     style="fill:#a46f3e"
     d="m 19.527,24 c -0.323,0 -0.641,-0.156 -0.833,-0.445 -0.307,-0.46 -0.183,-1.08 0.277,-1.387 l 9,-6 c 0.46,-0.306 1.08,-0.183 1.387,0.277 0.307,0.46 0.183,1.08 -0.277,1.387 l -9,6 C 19.91,23.945 19.717,24 19.527,24 Z"
     id="path678" /><path
     inkscape:connector-curvature="0"
     style="fill:#a46f3e"
     d="m 24.527,25 c -0.305,0 -0.604,-0.138 -0.801,-0.4 -0.332,-0.441 -0.242,-1.068 0.2,-1.399 l 8,-6 c 0.441,-0.332 1.067,-0.244 1.399,0.2 0.332,0.441 0.242,1.068 -0.2,1.399 l -8,6 C 24.946,24.935 24.736,25 24.527,25 Z"
     id="path680" /><path
     inkscape:connector-curvature="0"
     style="fill:#a46f3e"
     d="m 30.527,25 c -0.294,0 -0.584,-0.128 -0.782,-0.375 -0.345,-0.432 -0.274,-1.061 0.156,-1.406 l 5,-4 c 0.433,-0.345 1.061,-0.274 1.406,0.156 0.345,0.432 0.274,1.061 -0.156,1.406 l -5,4 C 30.966,24.929 30.746,25 30.527,25 Z"
     id="path682" /><path
     inkscape:connector-curvature="0"
     style="fill:#f9d70b"
     d="m 16.526,34 c -1.645,-0.386 -2.941,-0.841 -4,-1.25 v 9.379 c 0.486,0.299 0.989,0.592 1.527,0.87 8.723,4.507 11.882,2.324 11.473,-1 -0.75,-6.082 -2.25,-6.416 -9,-7.999 z"
     id="path684" /></g></svg>